<?xml version="1.0" encoding="UTF-8"?>
<svg id="longhorn-base" xmlns="http://www.w3.org/2000/svg" xmlns:xlink="http://www.w3.org/1999/xlink" version="1.1" viewBox="0 0 512 768">
  <!-- Generator: Adobe Illustrator 30.3.0, SVG Export Plug-In . SVG Version: 2.1.3 Build 182)  -->
  <defs>
    <style>
      .st0 {
        stroke-width: 6px;
      }

      .st0, .st1 {
        stroke: #683a2d;
      }

      .st0, .st1, .st2, .st3, .st4, .st5 {
        fill: none;
      }

      .st0, .st1, .st2, .st3, .st5 {
        stroke-linecap: round;
      }

      .st1 {
        stroke-width: 2.5px;
      }

      .st6 {
        fill: #71391f;
      }

      .st7 {
        fill: url(#linear-gradient1);
      }

      .st7, .st8, .st9, .st10, .st11, .st12, .st13, .st14, .st15, .st16, .st17, .st5 {
        stroke-width: 5px;
      }

      .st7, .st8, .st9, .st10, .st11, .st12, .st14, .st15, .st16, .st4, .st18 {
        stroke-linejoin: round;
      }

      .st7, .st11, .st16 {
        stroke: #713c29;
      }

      .st8 {
        fill: url(#linear-gradient4);
      }

      .st8, .st9, .st10, .st12, .st17 {
        stroke: #753c26;
      }

      .st9 {
        fill: url(#linear-gradient3);
      }

      .st10 {
        fill: url(#linear-gradient2);
      }

      .st2 {
        isolation: isolate;
        opacity: .7;
        stroke: #f1ac76;
      }

      .st2, .st3 {
        stroke-width: 7px;
      }

      .st11 {
        fill: #563b35;
      }

      .st12 {
        fill: #b95d30;
      }

      .st3 {
        stroke: #75391f;
      }

      .st13 {
        fill: #b96536;
        stroke: #773d2a;
      }

      .st14 {
        fill: url(#linear-gradient5);
      }

      .st14, .st15 {
        stroke: #856f5a;
      }

      .st15 {
        fill: url(#linear-gradient6);
      }

      .st19 {
        fill: #00d6ce;
      }

      .st20 {
        fill: #fff;
      }

      .st21 {
        fill: #302a2a;
      }

      .st16 {
        fill: url(#linear-gradient);
      }

      .st17 {
        fill: url(#linear-gradient7);
      }

      .st4 {
        stroke: #854126;
      }

      .st4, .st18 {
        stroke-width: 3px;
      }

      .st22 {
        fill: #e9a79a;
      }

      .st23 {
        fill: #925c4c;
      }

      .st24 {
        fill: #f3c69d;
        stroke: #8c563a;
        stroke-width: 4px;
      }

      .st18 {
        stroke: #94736a;
      }

      .st5 {
        stroke: #764638;
      }
    </style>
    <linearGradient id="linear-gradient" x1="-712.37" y1="804.35" x2="-711.37" y2="803.35" gradientTransform="translate(31549 156517.63) scale(44 -194)" gradientUnits="userSpaceOnUse">
      <stop offset=".38" stop-color="#cf763e"/>
      <stop offset="1" stop-color="#a94d25"/>
    </linearGradient>
    <linearGradient id="linear-gradient1" x1="-712.49" y1="804.35" x2="-711.49" y2="803.35" gradientTransform="translate(31615 156517.63) scale(44 -194)" gradientUnits="userSpaceOnUse">
      <stop offset=".44" stop-color="#cf763e"/>
      <stop offset="1" stop-color="#a94d25"/>
    </linearGradient>
    <linearGradient id="linear-gradient2" x1="-724.11" y1="804.34" x2="-723.11" y2="803.34" gradientTransform="translate(108008.9 165605.86) scale(148.91 -205.5)" gradientUnits="userSpaceOnUse">
      <stop offset=".84" stop-color="#cf763e"/>
      <stop offset="1" stop-color="#a94d25"/>
    </linearGradient>
    <linearGradient id="linear-gradient3" x1="-719.22" y1="804.17" x2="-718.22" y2="803.17" gradientTransform="translate(53653.55 124060.24) scale(74.42 -153.84)" gradientUnits="userSpaceOnUse">
      <stop offset=".82" stop-color="#cd743d"/>
      <stop offset="1" stop-color="#a94d25"/>
    </linearGradient>
    <linearGradient id="linear-gradient4" x1="-719.21" y1="804.18" x2="-718.21" y2="803.18" gradientTransform="translate(53831.4 124060.24) scale(74.42 -153.84)" gradientUnits="userSpaceOnUse">
      <stop offset=".7" stop-color="#cf763e"/>
      <stop offset="1" stop-color="#a94d25"/>
    </linearGradient>
    <linearGradient id="linear-gradient5" x1="-723.05" y1="805.86" x2="-723.05" y2="804.86" gradientTransform="translate(46626.18 127169.93) rotate(25.04) scale(132.62 -118.5)" gradientUnits="userSpaceOnUse">
      <stop offset="0" stop-color="#fff4da"/>
      <stop offset="1" stop-color="#e3c69b"/>
    </linearGradient>
    <linearGradient id="linear-gradient6" x1="-723.48" y1="802.51" x2="-723.48" y2="801.51" gradientTransform="translate(125603.81 50686.54) rotate(-22.74) scale(132.62 -118.5)" gradientUnits="userSpaceOnUse">
      <stop offset="0" stop-color="#fff4da"/>
      <stop offset="1" stop-color="#e3c69b"/>
    </linearGradient>
    <linearGradient id="linear-gradient7" x1="-725.3" y1="804.39" x2="-724.3" y2="803.39" gradientTransform="translate(143770 174920.79) scale(198 -217.29)" gradientUnits="userSpaceOnUse">
      <stop offset=".66" stop-color="#cf763e"/>
      <stop offset="1" stop-color="#a94d25"/>
    </linearGradient>
  </defs>
  <g id="tail">
    <path class="st3" d="M311,470c46.67,14.67,65.67,43,57,85-3.33,15.33-10.33,22.33-21,21"/>
    <path class="st6" d="M346,575c-5.33-10-4.33-17,3-21,10,4.67,13.33,12.67,10,24l-13-3Z"/>
  </g>
  <g id="legs">
    <path class="st16" d="M203.65,480l44,2-7,183c-8.67,12-20,12-34,0l-3-185Z"/>
    <path class="st7" d="M263.89,482l44-2-5,185c-14.67,12-26.33,12-35,0l-4-183Z"/>
    <path class="st11" d="M204.65,654c10.67,6,23.33,6.33,38,1l3,36c-16,11.33-34.33,12-55,2-1.33-13.33,3.33-26.33,14-39Z"/>
    <path class="st11" d="M266.89,655c13.33,6,25.67,5.67,37-1,11.33,12,16.67,24.67,16,38-20.67,10.67-39.33,10.33-56-1l3-36Z"/>
    <path class="st18" d="M216,674l-1,22M289,675l1,22"/>
  </g>
  <g id="torso">
    <path class="st10" d="M220,312c-12,6-22,18-30,37-3,25-2,55,5,91,3,25,6,48,10,67,34,13,68,13,102,0,4-24,7-46,10-67,7-37,8-68,5-92-9-19-19-31-30-36h-72Z"/>
    <path class="st24" d="M238,328c12.67,10.67,24.67,10.67,36,0l9,102c-17.33,9.33-35.67,9.33-55,0l10-102Z"/>
  </g>
  <g id="arms">
    <path class="st9" d="M190,349c-12.67-5.33-22.33-1-29,13-12,26.67-22,62-30,106-3.33,14,.67,24.33,12,31,13.33,4.67,23-.67,29-16l30-97c5.33-16,1.33-28.33-12-37Z"/>
    <path class="st8" d="M322,349c12.67-5.33,22.33-1,29,13,12,26.67,22,62,30,106,3.33,14-.67,24.33-12,31-13.33,4.67-23-.67-29-16l-30-97c-5.33-16-1.33-28.33,12-37Z"/>
    <path class="st12" d="M132,467c-6,8.67-6.33,19.67-1,33,7.33,10,15.67,11.67,25,5,10-6.67,13.67-15,11-25-6-10-17.67-14.33-35-13Z"/>
    <path class="st12" d="M380,467c6,8.67,6.33,19.67,1,33-7.33,10-15.67,11.67-25,5-10-6.67-13.67-15-11-25,6-10,17.67-14.33,35-13Z"/>
    <path class="st4" d="M139,489c6,3.33,11.33,3,16-1M373,489c-6,3.33-11.33,3-16-1"/>
  </g>
  <g id="horns">
    <path class="st14" d="M161.96,193.72c-42.48-16.17-66.44-42.07-71.86-77.72-3.69-26.74,1.87-52.84,16.7-78.29-1.99,37.33,4.67,63.25,19.97,77.76,15.3,14.5,40.04,25.33,74.23,32.47l-39.04,45.78h0Z"/>
    <path class="st15" d="M353.01,196.12c43.1-14.45,68.07-39.37,74.93-74.77,4.77-26.57.25-52.87-13.54-78.9.49,37.38-7.21,63.01-23.08,76.89s-41.03,23.7-75.48,29.46l37.17,47.31h0Z"/>
  </g>
  <g id="ears">
    <path class="st13" d="M190,203c-35.4-22.33-60.13-26.42-74.17-12.26-7.43,7.49-9.53,19.01-4.34,28.19,8.86,15.68,34.37,24.04,76.51,25.07l2-41Z"/>
    <path class="st13" d="M322,203c37.92-23.92,63.58-26.91,77-8.97,4.4,5.88,5.9,13.49,3.51,20.44-6.37,18.57-32.54,28.41-78.51,29.53l-2-41Z"/>
    <path class="st22" d="M175,220c-28.67-18.67-44-22-46-10,5.33,12.67,20.67,19.33,46,20v-10Z"/>
    <path class="st22" d="M337,220c28.67-18.67,44-22,46-10-5.33,12.67-20.67,19.33-46,20v-10Z"/>
  </g>
  <path class="st17" d="M258.37,138.11c51.92-2.44,83.46,22.93,94.63,76.13,8,53.33-8,95-48,125-32.67,21.33-65.33,21.33-98,0-40-30-56-71.67-48-125,11.16-53.2,42.71-78.57,94.63-76.13,1.58.07,3.16.07,4.74,0Z"/>
  <path class="st2" d="M199,159c8-9.33,16.33-13.33,25-12"/>
  <path class="st2" d="M288,147c8.67-1.33,17,2.67,25,12"/>
  <path class="st0" d="M205,222c10-8.67,20.67-8.33,32,1M275,223c11.33-9.33,22-9.67,32-1"/>
  <path class="st1" d="M213.17,230l-5.38-1.75M215.83,226.4l-4.05-3.55"/>
  <path class="st1" d="M298.86,229.43l5.27-2.05M296,225.99l3.84-3.77"/>
  <ellipse class="st21" cx="222" cy="235" rx="8.5" ry="10"/>
  <ellipse class="st21" cx="290" cy="235" rx="8.5" ry="10"/>
  <circle class="st20" cx="225" cy="231" r="3"/>
  <circle class="st20" cx="293" cy="231" r="3"/>
  <ellipse class="st24" cx="256" cy="291" rx="82" ry="56"/>
  <ellipse class="st23" cx="213" cy="282" rx="12" ry="8"/>
  <ellipse class="st23" cx="299" cy="282" rx="12" ry="8"/>
  <path class="st5" d="M231,309c16.67,14.67,33.33,14.67,50,0"/>
  <g id="anchors" display="none" aria-hidden="true">
    <circle id="anchor-head-top" class="st19" cx="256" cy="140" r="5"/>
    <circle id="anchor-hat" class="st19" cx="256" cy="127" r="5"/>
    <circle id="anchor-neck" class="st19" cx="256" cy="339" r="5"/>
    <circle id="anchor-shoulder-left" class="st19" cx="191" cy="351" r="5"/>
    <circle id="anchor-shoulder-right" class="st19" cx="321" cy="351" r="5"/>
    <circle id="anchor-wrist-left" class="st19" cx="146" cy="483" r="5"/>
    <circle id="anchor-wrist-right" class="st19" cx="366" cy="483" r="5"/>
    <circle id="anchor-waist" class="st19" cx="256" cy="468" r="5"/>
    <circle id="anchor-hip-left" class="st19" cx="205" cy="503" r="5"/>
    <circle id="anchor-hip-right" class="st19" cx="307" cy="503" r="5"/>
    <circle id="anchor-foot-left" class="st19" cx="216" cy="678" r="5"/>
    <circle id="anchor-foot-right" class="st19" cx="296" cy="678" r="5"/>
    <circle id="anchor-hand-left" class="st19" cx="146" cy="493" r="5"/>
    <circle id="anchor-hand-right" class="st19" cx="366" cy="493" r="5"/>
  </g>
</svg>
