<svg xmlns="http://www.w3.org/2000/svg" viewBox="0 0 345.78 668.79"><g id="windbreaker"><path d="M112,284c12-7.33,24-9,36-5l23,12.05,23-12.05c14-4,25.67-2,35,6l12.23,11c11.11,10,20.02,22.21,26.13,35.85,10.8,24.13,22.55,54.19,29.66,94.28l-43.51,21.65c-15.33-33.33-11.37-38.79-17.37-54.79l-3.13,32.08c-42,10-83,10.92-125,.92l-2.62-42.48c-7.33,16.67-5.17,28.82-19.84,61.48l-41.23-18.86c7.59-34.36,14.29-59.32,21.49-80.67,6.23-18.47,17.09-35.03,31.52-48.13l14.69-13.34Z" fill="#a7b8d9" stroke="#485f8e" stroke-width="4.5" stroke-linecap="round" stroke-linejoin="round"/><path d="M148 280 L171 307 L194 280 L208 290 L171 338 L134 290 Z" fill="#d9e0f4" stroke="#485f8e" stroke-width="3"/><path d="M171 338 V378" stroke="#485f8e" stroke-width="3"/><path d="M108 404 Q171 422 233 404 L233 423 Q171 438 108 423 Z" fill="#6b82b0" stroke="#485f8e" stroke-width="2"/><path d="M60 403 L88 416 M255 416 L286 403" stroke="#6b82b0" stroke-width="12"/><path d="M122 372 L151 380 M193 380 L221 372" fill="none" stroke="#e3e9f5" stroke-width="3"/></g></svg>